# xmcd CD database file
#
# Track frame offsets:
#	150
#	3578
#	35444
#	55319
#	89739
#	109973
#	140784
#	142750
#	177867
#	214060
#	246596
#
# Disc length: 3699 seconds
#
# Revision: 1
# Processed by: cddbd v1.5.1PL2 Copyright (c) Steve Scherf et al.
# Submitted via: CDex 1.51
#
DISCID=a50e710b
DTITLE=Charlie Hunter Quintet - KCRW Morning Becomes Eclectic 2001/2003
DYEAR=2003
DGENRE=Jazz
TTITLE0=Charlie Hunter - Intro
TTITLE1=Charlie Hunter - Mitch Better Have My Bunny
TTITLE2=Charlie Hunter - Day Is Done
TTITLE3=Charlie Hunter - Pin Speakers
TTITLE4=Charlie Hunter - More Than This
TTITLE5=Charlie Hunter - Go Go Fantasy
TTITLE6=Charlie Hunter - Try
TTITLE7=Charlie Hunter - Try
TTITLE8=Charlie Hunter - Flau Flau
TTITLE9=Charlie Hunter - Darkly
TTITLE10=Charlie Hunter - Le Bateau Ivre (drunken Boat)
EXTD=YEAR: 2003
EXTT0=
EXTT1=
EXTT2=
EXTT3=
EXTT4=
EXTT5=
EXTT6=
EXTT7=
EXTT8=
EXTT9=
EXTT10=
PLAYORDER=
